<svg width="717" height="374" viewBox="0 0 717 374" fill="none" xmlns="http://www.w3.org/2000/svg">
<path d="M685.721 1.02661H489.761L517.401 28.6533H351.313L322.649 6.10352e-05H31.1667L0 31.44V340.741L31.404 372.951L140.997 372.637L169.453 343.888H536.041L545.521 334.409H165.5L137.036 363.177L35.3947 363.461L9.47865 336.883V35.3467L35.12 9.48001H318.725L347.389 38.1334H540.281L512.641 10.4933H681.801L707.521 36.2133V78.1067L682.255 103.36V271.12L707.521 296.373V337.224L681.588 363.916H645.415L635.255 373.396H685.601L717.001 341.073V32.2933L685.721 1.02661Z" fill="#D3C4FF"/>
<path d="M399.903 21.7734L378.12 0.0001297H350.309L372.092 21.7734H399.903Z" fill="#D3C4FF"/>
<path d="M444.036 21.7734L422.251 0.0001297H394.443L416.225 21.7734H444.036Z" fill="#D3C4FF"/>
<path d="M487.708 21.7734L466.281 0.346745L438.121 0.0001297L459.903 21.7734H487.708Z" fill="#D3C4FF"/>
<path d="M500.495 351.613H178.14L156.359 373.396H506.521L528.308 351.613H503.508H500.495Z" fill="#D3C4FF"/>
</svg>
