<svg width="606" height="371" viewBox="0 0 606 371" fill="none" xmlns="http://www.w3.org/2000/svg">
<path d="M43.4789 6.09189L6.2002 43.3689V51.415L51.5395 6.09189H43.4789Z" fill="#D3C4FF"/>
<path d="M562.107 6.08911H554.074L599.393 51.416V43.3694L562.107 6.08911Z" fill="#D3C4FF"/>
<path d="M548.386 0.400154H57.2418L51.5325 6.08778H554.075L548.386 0.400154ZM599.398 51.4163V364.844H6.20998V51.4163L0.520264 57.104V370.531H605.088V57.104L599.398 51.4163Z" fill="#D3C4FF"/>
<path d="M387.772 27.8164H217.832L193.27 3.24883H412.335L387.772 27.8164Z" fill="#D3C4FF"/>
<path d="M10.9099 359.027H160.799L135.437 333.663H75.7565L59.4862 317.386H37.5966V251.89L10.9099 274.749V359.027ZM163.097 359.973H9.97046V274.313L38.5527 249.832V316.439H59.8888L76.1423 332.716H135.823L163.097 359.973Z" fill="#D3C4FF"/>
<path d="M444.801 359.031H594.682V274.751L567.989 251.893V317.39H546.114L529.834 333.666H470.153L444.801 359.031ZM595.634 359.977H442.508L469.745 332.718H529.426L545.706 316.442H567.056V249.836L595.634 274.316V359.977Z" fill="#D3C4FF"/>
<path d="M194.346 357.492H411.258L439.112 329.613H479.965L463.238 312.886H439.561L429.015 302.336L411.258 284.586L410.246 285.607L427.124 302.488H407.362L389.717 284.836H215.869L198.224 302.488H178.48L195.358 285.607L194.327 284.586L176.589 302.336L166.043 312.886H142.366L125.62 329.613H166.473L194.346 357.492ZM411.633 358.439H193.953L166.08 330.561H123.353L141.973 311.938H165.649L174.285 303.286H154.242V301.54H176.045L194.327 283.245L196.706 285.607L180.766 301.54H197.83L215.494 283.89H390.11L407.755 301.54H424.82L408.898 285.607L411.258 283.245L429.54 301.54H451.362V303.286H431.282L439.936 311.938H463.631L482.251 330.561H439.524L411.633 358.439Z" fill="#D3C4FF"/>
<path d="M465.319 9.70624L444.234 34.6768H460.188L481.273 9.70624H465.319Z" fill="#D3C4FF"/>
<path d="M491.046 9.69661L469.934 34.668H485.89L506.983 9.69661H491.046Z" fill="#D3C4FF"/>
<path d="M496.818 34.6719H512.781L533.867 9.70153H517.924L496.818 34.6719Z" fill="#D3C4FF"/>
<path d="M139.051 9.70112L160.163 34.6719H144.211L123.116 9.70112H139.051Z" fill="#D3C4FF"/>
<path d="M113.378 9.69738L134.474 34.6689H118.523L97.4272 9.69738H113.378Z" fill="#D3C4FF"/>
<path d="M108.764 34.6787H92.8165L71.7236 9.70749H87.6707L108.764 34.6787Z" fill="#D3C4FF"/>
<path d="M0.525879 34.6641L34.2179 0.971917H0.525879V34.6641Z" fill="#D3C4FF"/>
<path d="M605.088 34.6689L571.398 0.975154H605.088V34.6689Z" fill="#D3C4FF"/>
</svg>
