<svg width="766" height="411" viewBox="0 0 766 411" fill="none" xmlns="http://www.w3.org/2000/svg">
<path d="M62.9733 391.146C62.9733 394.532 60.2267 397.279 56.8267 397.279C53.44 397.279 50.6934 394.532 50.6934 391.146C50.6934 387.746 53.44 384.999 56.8267 384.999C60.2267 384.999 62.9733 387.746 62.9733 391.146Z" fill="#D3C4FF"/>
<path d="M699.555 391.146C699.555 394.534 696.808 397.279 693.403 397.279C690.024 397.279 687.277 394.534 687.277 391.146C687.277 387.747 690.024 385 693.403 385C696.808 385 699.555 387.747 699.555 391.146Z" fill="#D3C4FF"/>
<path d="M735.052 0.139374H470.148L473.909 4.41542H733.284L761.579 32.72V158.69H765.863V30.9482L735.052 0.139374Z" fill="#D3C4FF"/>
<path d="M384 389.586H368.933L347.906 410.612H418.453L397.427 389.586H384Z" fill="#D3C4FF"/>
<path d="M410.667 389.586L431.693 410.612H451.707L430.68 389.586H410.667Z" fill="#D3C4FF"/>
<path d="M443.92 389.586L464.933 410.612H484.947L463.933 389.586H443.92Z" fill="#D3C4FF"/>
<path d="M477.173 389.586L498.187 410.612H515.093L493.747 389.586H477.173Z" fill="#D3C4FF"/>
<path d="M690.646 29.7847L709.531 10.6529H487.85L506.749 29.7847H690.646Z" fill="#D3C4FF"/>
<path d="M731.29 18.2914V158.692H754.279V40.8668L731.29 18.2914Z" fill="#D3C4FF"/>
<path d="M730.003 356.959H732.575V212.574L764.212 180.933L762.403 179.119L730.003 211.519V356.959Z" fill="#D3C4FF"/>
<path d="M762.023 378.587L733.334 407.28H529.022L500.758 379.012H383.996H382.356H265.594L237.33 407.28H33.0174L4.32866 378.587V222.721H1.77075V379.653L31.9575 409.839H238.389L266.654 381.573H382.356H383.996H499.698L527.962 409.839H734.394L764.581 379.653V222.721H762.023V378.587Z" fill="#D3C4FF"/>
<path d="M4.78667 32.723L33.0933 4.41769H292.467L296.227 0.141663H31.32L0.506592 30.951V158.692H4.78667V32.723Z" fill="#D3C4FF"/>
<path d="M382.36 21.1631H472.267L450.92 0.141731H315.453L294.107 21.1631H382.36Z" fill="#D3C4FF"/>
<path d="M335.68 389.586L314.667 410.612H334.68L355.693 389.586H335.68Z" fill="#D3C4FF"/>
<path d="M302.427 389.586L281.413 410.612H301.427L322.44 389.586H302.427Z" fill="#D3C4FF"/>
<path d="M272.613 389.586L251.267 410.612H268.173L289.2 389.586H272.613Z" fill="#D3C4FF"/>
<path d="M259.627 29.7844L278.507 10.6524H56.8267L75.72 29.7844H259.627Z" fill="#D3C4FF"/>
<path d="M12.0934 40.867V158.692H35.08V18.291L12.0934 40.867Z" fill="#D3C4FF"/>
<path d="M36.36 356.959V211.519L3.96002 179.119L2.14661 180.932L33.7867 212.572V356.959H36.36Z" fill="#D3C4FF"/>
<path d="M225.243 391.614H62.2776V390.667H224.846L254.771 360.748H515.278L544.929 390.387H693.404V391.334H544.518L514.881 361.694H255.168L225.243 391.614Z" fill="#D3C4FF"/>
</svg>
