<svg width="412" height="275" viewBox="0 0 412 275" fill="none" xmlns="http://www.w3.org/2000/svg">
<path fill-rule="evenodd" clip-rule="evenodd" d="M2.637 53.6675H16.7002V72.2806H43.6546L47.4634 67.9375H65.0423V72.2806H54.7879L32.8142 97.0979H27.2475V118.193H32.8142V137.116H403.73V129.05L406.953 125.638V113.85L411.348 109.507V97.0979L403.73 91.2038L406.953 83.7586L381.757 60.4923H369.158L365.35 53.6675H353.337L337.223 41.8793V35.675H330.778V27.2991H310.855L307.046 31.0217H262.806V27.2991L227.648 4.03282H128.62L124.811 0H117.779V4.03282H111.627L106.353 8.37586H79.3985L70.609 4.03282H47.4634L43.6546 0H16.7002V12.4087H2.637C-0.926114 28.364 -0.697858 37.4077 2.637 53.6675ZM2.58745 220.564H16.6506V201.951H43.605L47.4138 206.294H64.9928V201.951H54.7384L32.7647 177.134H27.198V156.039H32.7647V137.116H403.681V145.182L406.904 148.594V160.382L411.298 164.725V177.134L403.681 183.028L406.904 190.473L381.707 213.74H369.109L365.3 220.564H353.288L337.174 232.353V238.557H330.728V246.933H310.805L306.997 243.21H262.756V246.933L227.598 270.199H128.57L124.761 274.232H117.73V270.199H111.577L106.303 265.856H79.349L70.5594 270.199H47.4138L43.605 274.232H16.6506V261.823H2.58745C-0.975667 245.868 -0.747411 236.824 2.58745 220.564Z" fill="#413D4C"/>
<path fill-rule="evenodd" clip-rule="evenodd" d="M231.457 75.0725H137.702V137.116H247.864V92.4447L231.457 75.0725ZM247.863 181.787L231.456 199.159H137.702V137.116H247.863V181.787Z" fill="#666173"/>
<path fill-rule="evenodd" clip-rule="evenodd" d="M231.456 14.8904H17.579V48.3939H73.5387V67.9375H231.456V14.8904ZM231.456 259.341H17.579V225.838H73.5387V206.294H231.456V259.341Z" fill="#666173"/>
<path fill-rule="evenodd" clip-rule="evenodd" d="M133.014 75.0725H64.7492L41.0176 102.061V137.116H133.014V75.0725ZM133.014 137.116V199.159H64.7492L41.0176 172.17V137.116H133.014Z" fill="#666173"/>
<path fill-rule="evenodd" clip-rule="evenodd" d="M326.427 35.9852H237.902V74.8342L253.386 90.2504V137.116H342.204V64.3511L326.427 35.9852ZM326.427 238.247H237.902V199.398L253.386 183.981V137.116H342.204V209.881L326.427 238.247Z" fill="#666173"/>
<path fill-rule="evenodd" clip-rule="evenodd" d="M376.483 66.3864H346.306V137.116H399.043V87.4141L376.483 66.3864ZM399.042 137.116V186.818L376.483 207.845H346.306V137.116H399.042Z" fill="#666173"/>
</svg>
